<svg xmlns="http://www.w3.org/2000/svg" fill="none" viewBox="0 0 148 21">
    <path fill="url(#b)"
          d="M85.5379 7.334c-.0034.04106-.0146.08102-.0331.11757-.0184.03655-.0436.06897-.0742.09538-.0306.02641-.066.0463-.1041.05852-.0381.01221-.0781.01651-.1178.01265-.3916-.04212-.7864-.04212-1.178 0-.7057.09571-1.3962.28675-2.0538.56824l-.1088.04059c-.6148.27339-1.2709.43398-1.9391.47458-.3042.00506-.608-.02426-.9061-.08742-.1403-.02695-.2696-.09664-.3713-.20012-.1018-.10347-.1712-.23602-.1996-.38061-.0956-.5063-.0879-1.02768.0228-1.5307.1106-.50303.3217-.97662.6197-1.3904.298-.41379.6764-.75864 1.1108-1.01245.4345-.25382.9154-.411 1.4121-.46146.4966-.05047.998.00689 1.472.1684.4739.16151.91.42361 1.2803.76949.3702.34588.6665.76792.8697 1.23905.2033.47113.3091.98097.3106 1.49684l-.0121.02185Z"/>
    <path fill="url(#b)"
          d="M78.6907 9.17309c-.0615-.01565-.126-.01298-.1861.0077-.0601.02068-.1133.05853-.1534.10917-.0401.05063-.0656.11198-.0734.17695-.0078.06496.0024.13088.0293.19013l3.5188 6.66596c.0125.0248.0313.0457.0545.0603.0232.0145.0498.0222.0769.0222s.0537-.0077.0769-.0222c.0231-.0146.042-.0355.0545-.0603l3.8812-7.35597c.0334-.05972.0527-.12676.0562-.19564.0035-.06888-.0088-.13765-.0359-.20069-.0271-.06303-.0682-.11854-.12-.16199-.0519-.04345-.1129-.07359-.1782-.08798-.5259-.11503-1.0659-.14557-1.6008-.09054-.6608.09056-1.3069.27222-1.921.54014l-.0997.03746c-.6776.29408-1.3987.46722-2.1324.51205-.4202.00783-.8396-.04151-1.2474-.14675Z"
          opacity=".7"/>
    <path fill="url(#c)"
          d="M81.9557 8.97952c-.0008-.03747.0099-.07425.0305-.10508.0206-.03084.0501-.05416.0843-.06665l.0997-.03746c.6141-.26792 1.2602-.44958 1.921-.54014.5349-.05503 1.0748-.02449 1.6008.09054.0652.01439.1263.04453.1781.08798.0518.04345.093.09896.1201.16199.0271.06303.0394.13181.0358.20069-.0035.06888-.0227.13592-.0561.19564L82.0886 16.323c-.0128.0248-.0319.0456-.0554.0599-.0234.0143-.0502.0217-.0775.0212V8.97952Z"/>
    <path fill="#FFC2DE" fill-rule="evenodd"
          d="M96.3118 4.46785c-.5146-.15955-1.0485-.2426-1.5857-.24666-.9106.003-1.8077.22762-2.6187.65567-.7743.43203-1.4094 1.0886-1.8274 1.88893-.4408.85716-.6593 1.81773-.6343 2.78814-.0158.97317.2132 1.93387.6645 2.78817.4313.7859 1.0635 1.434 1.8274 1.8733.7698.4636 1.6462.7041 2.5371.6962.8298.0324 1.6537-.1569 2.3922-.5495.7219-.3884 1.3144-.9921 1.7005-1.7328.4456-.8406.6647-1.7895.6343-2.74754v-.7306c0-.02255-.0043-.04488-.0127-.06571-.0083-.02083-.0206-.03977-.036-.05571-.0154-.01595-.0337-.0286-.0539-.03723-.0201-.00863-.0418-.01307-.0636-.01307h-4.0926c-.0218 0-.0434.00444-.0636.01307-.0201.00863-.0385.02128-.0539.03723-.0154.01594-.0276.03488-.036.05571-.0083.02083-.0126.04316-.0126.06571v1.50174c0 .0456.0175.0893.0486.1215.0312.0322.0734.0503.1175.0503h1.8787c.0157.0002.0311.0039.0453.0109.0141.007.0267.017.0367.0295.0101.0125.0174.027.0215.0427.004.0156.0048.032.0022.048-.0378.2043-.0955.4041-.1722.5963-.1514.4227-.4482.7728-.8336.9835-.4414.2334-.9332.3462-1.4287.3279-.4921-.0088-.9721-.1596-1.3858-.4354-.4136-.2759-.7444-.6658-.955-1.1257-.2461-.5383-.3681-1.1282-.3564-1.72349-.0117-.59525.1103-1.18519.3564-1.72346.2073-.47094.5487-.86525.9786-1.13024.4271-.27867.9238-.42194 1.4287-.41214.4672.0027.9278.11478 1.3471.32784.3768.21023.6983.51249.9363.88046.0262.03817.0657.06437.1102.0731.0445.00873.0905-.00068.1284-.02627l1.4861-1.04282c.0342-.02413.058-.06103.0665-.10295.0084-.04192.0008-.0856-.0212-.12185-.277-.42615-.6259-.79735-1.03-1.09589-.4487-.32593-.9454-.57476-1.4709-.73684Zm12.7252.33095 1.77-.48082c.024-.00668.05-.00745.075-.00227.025.00518.048.01618.068.03215.02.01598.037.0365.048.06001.011.0235.017.04936.017.07559V14.5901c0 .0455-.017.0892-.049.1214-.031.0322-.073.0503-.117.0503h-1.77c-.022.0004-.044-.0037-.064-.0122-.02-.0085-.039-.0211-.054-.0372-.016-.016-.028-.0351-.036-.0561-.008-.0211-.012-.0436-.012-.0662V4.9674c0-.0381.013-.07505.035-.1054.022-.03035.053-.05251.089-.0632Zm20.871 4.25558c.265-.16094.568-.24506.876-.24354.305.00763.605.09116.873.24354.267.16186.478.40652.604.69937.165.35845.246.75215.235 1.14895.011.3959-.07.7886-.235 1.1459-.11.3134-.324.5759-.604.7399-.265.1615-.567.2467-.875.2467-.307 0-.609-.0852-.874-.2467-.26-.1888-.468-.4437-.604-.7399-.166-.3573-.246-.75-.236-1.1459-.01-.3968.071-.7905.236-1.14895.123-.29452.335-.53991.604-.69937Zm2.857-1.67975c-.608-.33775-1.291-.50563-1.981-.48707-.691-.00732-1.373.16216-1.985.49331-.584.33511-1.065.83267-1.389 1.43622-.356.63474-.534 1.35871-.517 2.09191.002.7307.18 1.4495.517 2.0919.314.6107.798 1.1099 1.389 1.433.614.3243 1.294.4933 1.983.4933.69 0 1.369-.169 1.983-.4933.583-.3348 1.064-.8311 1.389-1.433.355-.6351.534-1.3588.517-2.0919-.001-.7309-.179-1.44984-.517-2.09191-.312-.61259-.796-1.11323-1.389-1.43622v-.00624Zm-15.017 6.60657c.002-.006.007-.011.012-.0146.005-.0035.011-.0054.018-.0054.006 0 .012.0019.018.0054.005.0036.009.0086.012.0146v.5932c0 .0456.018.0893.049.1215.031.0322.073.0503.117.0503h1.77c.022.0004.044-.0038.064-.0122.021-.0085.039-.0212.054-.0372.016-.016.028-.0351.036-.0561.009-.0211.013-.0436.012-.0663V7.30594c0-.04555-.017-.08922-.048-.12143-.032-.0322-.074-.05029-.118-.05029h-1.77c-.044 0-.086.01809-.117.05029-.031.03221-.049.07588-.049.12143v.65878c-.001.01236-.005.02423-.012.03408-.007.00986-.017.01727-.029.02128-.011.00402-.023.00446-.035.00127-.011-.00318-.022-.00985-.03-.01916-.111-.14962-.235-.28954-.368-.41838-.234-.22506-.51-.39911-.81-.51176-.301-.11265-.62-.16159-.939-.1439-.612-.01522-1.213.17181-1.716.5339-.503.36046-.902.85735-1.15 1.43622-.277.64534-.413 1.34563-.399 2.05133-.013.7056.123 1.4057.399 2.0513.246.5792.645 1.0756 1.15 1.433.496.3663 1.095.5539 1.704.5339.639.0041 1.264-.1966 1.788-.5744.155-.1084.287-.2488.387-.4122Zm-.734-1.227c-.265.1615-.566.2467-.873.2467-.307 0-.609-.0852-.873-.2467-.26-.1889-.468-.4437-.604-.74-.129-.3533-.196-.7276-.197-1.1052-.018-.3671.049-.7335.197-1.06783.147-.27687.354-.51509.604-.69625.264-.16279.566-.24807.873-.24665.308-.00736.611.07837.873.24665.26.16882.47.41012.604.69625.135.33833.203.70163.199 1.06783.019.3795-.049.7583-.199 1.1052-.135.2971-.344.5523-.604.74Zm7.514-3.93711c-.014 0-.028.00592-.038.01646-.01.01054-.016.02483-.016.03974v2.93801c0 .6962.278 1.0647.834 1.0647h.643c.044 0 .086.0181.118.0503.031.0322.048.0758.048.1214v1.5424c0 .0455-.017.0892-.048.1214-.032.0322-.074.0503-.118.0503h-.906c-.834 0-1.51-.2436-1.945-.7369-.249-.2809-.441-.6111-.563-.9706-.123-.3595-.174-.7409-.15-1.1212V8.87329c-.001-.01519-.007-.02949-.018-.03995-.011-.01045-.025-.01627-.039-.01625h-1.242c-.026.00001-.052-.00652-.076-.01906-.024-.01255-.044-.03073-.059-.05303-.016-.02231-.026-.04809-.029-.0752-.004-.02711-.002-.05476.007-.08063l.441-1.33943c.011-.03401.032-.06354.06-.08431.029-.02078.063-.03171.097-.03121h.798c.014.00002.028-.0058.039-.01626s.017-.02476.018-.03994V5.0236c0-.03783.012-.07456.035-.10448.022-.02993.053-.05137.089-.061l1.827-.48706c.017-.00428.034-.00461.051-.00095.016.00365.032.01118.045.02203.014.01084.024.0247.032.04053.007.01582.011.03319.011.05079v2.61017c0 .0149.006.0292.016.03974.01.01054.024.01646.038.01646h1.45c.027-.00002.053.00652.076.01906.024.01254.044.03072.06.05303.015.0223.025.04809.029.07519.004.02711.001.05476-.008.08064l-.438 1.3363c-.011.03458-.033.06462-.061.0859-.029.02128-.063.03273-.099.03275l-1.009-.01561Zm-20.457-1.92953c.642-.01788 1.276.1532 1.828.49331.537.34327.965.84287 1.229 1.43622.31.64928.46 1.36811.435 2.09191v.359c0 .0227-.004.0452-.012.0662-.008.0211-.02.0402-.036.0562-.015.016-.034.0287-.054.0371-.021.0085-.042.0127-.064.0122h-4.703c-.016.0003-.031.004-.045.011-.015.007-.027.017-.037.0295-.01.0124-.017.027-.022.0426-.004.0157-.004.0321-.002.0481.027.1811.074.3583.142.5276.124.2933.336.5374.604.6963.294.1582.62.2427.952.2466.327.0034.652-.0669.951-.206.238-.1183.445-.2939.604-.5121.029-.037.071-.0607.117-.0659.046-.0053.092.0083.128.0378l1.208 1.0116c.017.0137.03.0306.041.0498.01.0192.016.0403.018.0621.003.0218.001.0438-.005.0648-.006.021-.016.0405-.03.0575-.332.4274-.762.7631-1.25.9772-.565.2464-1.172.3718-1.785.3685-.704.0122-1.4-.1574-2.024-.4933-.58-.327-1.051-.8277-1.35-1.4363-.324-.6456-.487-1.3646-.474-2.0918-.013-.7273.15-1.44627.474-2.09192.308-.58838.76-1.08265 1.311-1.4331.573-.30118 1.208-.4564 1.851-.45272Zm-1.335 3.12224c-.016-.0001-.032-.0039-.047-.01126-.015-.00734-.027-.018-.038-.03119-.01-.0132-.017-.02858-.021-.04502-.003-.01643-.003-.0335 0-.04993.059-.25789.162-.50307.303-.72436.128-.18951.301-.34185.502-.44243.202-.10058.425-.14605.648-.13206.218-.00964.434.03804.628.13854.194.10051.361.25054.484.43595.136.22207.233.4673.287.72436.003.01643.003.0335 0 .04993-.004.01644-.011.03182-.021.04502-.01.01319-.023.02385-.038.03119-.015.00736-.031.01116-.047.01126h-2.64Z"
          clip-rule="evenodd"/>
    <path fill="#FFC2DE"
          d="M13.4711 14.8585V6.84377h2.6519c.5229-.0212 1.0424.0948 1.5102.3372.3732.2064.6767.52552.8699.91481.191.39422.2883.82985.2839 1.27074.006.4467-.0903.88858-.2809 1.28948-.1931.3899-.4952.7108-.8669.921-.466.248-.9865.3664-1.5102.3435h-1.8907v-.8493h1.8696c.3513.016.7007-.0614 1.0148-.2248.2426-.1345.4373-.3456.5558-.6025.1155-.27218.1752-.56614.1752-.86333 0-.2972-.0597-.59116-.1752-.86329-.1193-.25684-.3166-.46628-.5618-.59635-.319-.15761-.6707-.2316-1.0239-.21543h-1.6703v7.153h-.9514Zm9.0551.1282c-.4876.0085-.9675-.1269-1.3834-.3903-.4055-.2616-.7303-.6375-.9363-1.0834-.2328-.509-.3475-1.067-.3352-1.6298-.0123-.5658.1024-1.1269.3352-1.6392.2058-.44686.5306-.82379.9363-1.0865.4242-.25351.9055-.38699 1.3955-.38699.4899 0 .9712.13348 1.3954.38699.4041.26382.7277.64053.9333 1.0865.2328.5123.3475 1.0734.3353 1.6392.0123.5628-.1025 1.1208-.3353 1.6298-.2057.4451-.5293.8208-.9333 1.0834-.4228.2681-.9117.4036-1.4075.3903Zm0-.8274c.3561.0167.7069-.0936.9937-.3122.2647-.2167.4655-.5054.5799-.8337.2498-.7249.2498-1.5168 0-2.2417-.1145-.3309-.3152-.6226-.5799-.84302-.2924-.2092-.6396-.32127-.9952-.32127s-.7028.11207-.9952.32127c-.2639.22062-.4635.51242-.5769.84302-.2538.7242-.2538 1.5175 0 2.2417.1136.3279.3133.6166.5769.8337.2881.218.64.3271.9967.3091v.0031Zm5.177.6992-1.7911-6.01027h.9484l1.2716 4.60217h.0604l1.2565-4.60217h.9665l1.2384 4.57717h.0604l1.2716-4.58653h.9484l-1.7911 6.01023h-.888l-1.2837-4.6084h-.0936l-1.2867 4.6178h-.888Zm9.6985.128c-.5115.0126-1.0164-.1214-1.4588-.3871-.4112-.257-.7408-.6324-.9484-1.0803-.229-.5056-.3417-1.0592-.3293-1.6173-.0117-.5631.1009-1.1215.3293-1.6329.2046-.44891.5256-.83041.9272-1.10216.4166-.27034.9007-.40822 1.3924-.39652.3084-.00041.6146.05235.9062.15611.3038.10599.582.27852.8155.5058.2622.26166.4626.58217.5859.93667.1565.4535.2302.9331.2175 1.4144v.3934h-4.5306v-.8087h3.6245c.0056-.3151-.0628-.6268-.1994-.9086-.1267-.2576-.3202-.47374-.5588-.62441-.2573-.15796-.5525-.23802-.8517-.23104-.3309-.00902-.6566.08686-.9333.27475-.2582.1759-.4666.4194-.6041.7056-.1421.2902-.2146.6115-.2114.9367v.5339c-.011.3976.0687.7922.2325 1.1521.1411.299.3651.5479.6434.715.2948.1679.627.2529.9635.2466.2194-.0022.4368-.0423.6434-.1186.1901-.0641.3634-.1727.5064-.3173.143-.1446.2519-.3213.3181-.5164l.8759.2498c-.0914.2999-.2509.5729-.4651.7962-.2277.2354-.5017.4175-.8034.5339-.3481.1319-.7167.1965-1.0874.1904Zm3.8118-.1279V8.84831h.8729v.90857h.0634c.1092-.30187.3135-.557.5799-.72435.2839-.18713.6148-.28377.9515-.27788h.4742v.93666c-.0687-.01662-.1383-.02913-.2084-.03746-.1129-.01903-.227-.02843-.3413-.0281-.2655-.00456-.528.05871-.7642.18421-.2167.1139-.3994.28654-.5286.49954-.1308.2182-.1979.4708-.1933.7275v3.8216h-.9061Zm6.2975.1279c-.5132.0143-1.0203-.1186-1.4649-.384-.4103-.2571-.739-.6326-.9454-1.0803-.23-.5054-.3437-1.0589-.3322-1.6173-.0108-.5634.1028-1.1218.3322-1.6329.2037-.44957.5249-.83131.9273-1.10218.416-.27195.9003-.41097 1.3924-.39965.3083-.00046.6146.0523.9061.15611.3039.106.5821.27852.8155.5058.2622.26166.4627.58212.586.93662.1565.4535.2302.9331.2175 1.4144v.3934h-4.5306v-.8086h3.6244c.0052-.3147-.0621-.6261-.1963-.9086-.1278-.2569-.321-.47278-.5588-.62445-.2741-.15851-.5843-.23807-.8983-.23038-.314.00769-.6202.10234-.8867.27409-.258.17614-.4664.41954-.6041.70564-.1406.2907-.2131.6116-.2114.9366v.5339c-.011.3976.0687.7923.2325 1.1521.1415.2998.3666.5489.6464.715.2935.1684.6249.2535.9605.2467.2197.002.4381-.0338.6464-.1062.1863-.0648.3565-.1714.4983-.3122.144-.1474.2552-.3253.3262-.5214l.8729.2498c-.0902.3004-.2499.5737-.4651.7961-.2272.2361-.5013.4183-.8034.5339-.3489.1277-.7174.188-1.0874.178Zm6.0348 0c-.46.0095-.9122-.1231-1.2988-.3809-.3855-.2674-.6902-.6418-.8789-1.0803-.2253-.5221-.3357-1.0895-.3232-1.661-.012-.5652.0973-1.1261.3202-1.6423.1912-.43796.4993-.81052.888-1.07406.3904-.2564.8454-.38783 1.3078-.37779.313-.01606.6249.05056.9061.19358.199.10686.3739.25579.5135.43711.1208.16236.2114.29661.2779.40277h.0785V6.84375h.9061v8.01475h-.8729v-.9367h-.0966c-.0665.1093-.1601.2498-.2839.4153-.1421.1832-.3202.3333-.5226.4402-.2848.1497-.6019.2217-.9212.2092Zm.1238-.8274c.325.007.6432-.0961.9062-.2935.2605-.2083.4584-.4887.5708-.8086.2599-.7714.2599-1.6109 0-2.3823-.1114-.3137-.3074-.5878-.5648-.78992-.2812-.18824-.6096-.28709-.9446-.28432-.335.00278-.6619.10706-.9401.29994-.2604.2097-.4582.4911-.5709.8118-.1255.3698-.1849.7602-.1752 1.1521-.0058.3962.0598.79.1933 1.1614.1118.3272.3108.6151.5739.8305.2745.2097.6104.3155.9514.2998v.0031Zm7.5057.6994V6.84375h.9061v2.95986h.0785c.0665-.10616.1571-.24041.2749-.40277.1403-.18061.3151-.32941.5135-.43711.2814-.1425.5931-.20909.9061-.19357.4624-.00949.9172.12189 1.3078.37778.3881.26483.695.63848.885 1.07716.2166.5177.3198 1.0785.3021 1.6423.0182.5678-.0849 1.1329-.3021 1.6548-.1888.4393-.4947.814-.8819 1.0802-.3841.2588-.8344.3926-1.2928.3841-.3129.0151-.6246-.0515-.9061-.1936-.2029-.1047-.3828-.2513-.5286-.4309-.1208-.1654-.2144-.3122-.2809-.4152h-.1087v.9366l-.8729-.0249Zm.888-2.9942c-.0069.4087.0597.8153.1963 1.1989.1123.3158.3079.5927.5648.7993.2743.1962.5998.3013.9333.3013s.6591-.1051.9333-.3013c.262-.2166.4607-.5041.5739-.8305.2557-.7464.2557-1.5609 0-2.3073-.1126-.3207-.3105-.6021-.5708-.81182-.2778-.1926-.6041-.29674-.9386-.29952-.3345-.00277-.6624.09594-.9431.28391-.2583.20123-.4545.47563-.5649.78993-.132.377-.1945.7763-.1842 1.1771Zm6.0499 5.233c-.1367.0014-.2733-.0112-.4077-.0374-.086-.0138-.1701-.0379-.2507-.0719l.2295-.8148c.2682.0884.5564.0884.8246 0 .2205-.0906.4108-.3622.5709-.8087l.1691-.4715-2.1747-6.04144h.9786l1.625 4.78944h.0604l1.625-4.78944.9877.01561L69.847 15.736c-.0981.2763-.24.5338-.4199.7619-.1553.1942-.3516.3491-.5739.4527-.2344.1003-.4862.1502-.74.1467Z"/>
    <defs>
        <linearGradient id="b" x1="82.1461" x2="82.1461" y1="8.39878" y2="16.4041" gradientUnits="userSpaceOnUse">
            <stop stop-color="#FFD6E7"/>
            <stop offset="1" stop-color="#FFC2DE" stop-opacity=".5"/>
        </linearGradient>
        <linearGradient id="c" x1="83.9885" x2="83.9885" y1="8.20209" y2="19.823" gradientUnits="userSpaceOnUse">
            <stop stop-color="#FFD6E7"/>
            <stop offset="1" stop-color="#FFC2DE" stop-opacity="0"/>
        </linearGradient>
    </defs>
</svg>
