<svg xmlns="http://www.w3.org/2000/svg" fill="none" viewBox="0 0 136 28">
    <g clip-path="url(#a)">
        <rect width="136" height="28" fill="#563A9F" rx="9"/>
        <path fill="url(#b)"
              d="M71.1664 9.9506c-.0014.2363-.2141.4035-.4441.3787-.5701-.0612-1.0925-.0561-1.5808-.0042-1.0629.1131-1.9462.4479-2.7606.7566l-.0018.0007c-.0493.0186-.0983.0372-.1471.0556-.8648.3266-1.6616.6076-2.6069.6299-.3772.0089-.7834-.0235-1.2308-.1154-.3837-.0788-.6903-.378-.7663-.7703-.0603-.3109-.0919-.6324-.0919-.96135C61.5361 7.20314 63.692 5 66.3513 5c2.6594 0 4.8152 2.20314 4.8152 4.92085 0 .00992 0 .01984-.0001.02975Z"/>
        <path fill="url(#c)"
              d="M61.9644 12.3958c-.3616-.0888-.6916.3083-.5135.6419l4.7265 8.8553c.076.1425.2762.1425.3522 0l5.2168-9.7739c.185-.3467.007-.7809-.3719-.8583-.8244-.1683-1.5267-.1864-2.1518-.1199-.9592.1021-1.7558.4036-2.5828.7167-.0438.0166-.0877.0332-.1317.0498-.8657.327-1.7743.6547-2.8666.6805-.5191.0122-1.0721-.0436-1.6772-.1921Z"/>
        <path fill="url(#d)"
              d="M66.3513 12.1375c0-.1027.0628-.1945.1571-.2301.044-.0166.0879-.0332.1317-.0498.8269-.3131 1.6236-.6146 2.5827-.7167.6251-.0665 1.3275-.0484 2.1518.1199.3789.0774.557.5116.3719.8583l-5.2167 9.7739c-.0385.0721-.1087.1077-.1785.1069v-9.8624Z"/>
        <path fill="#fff" fill-rule="evenodd"
              d="M83.3925 7.88151c-.617-.1798-1.1899-.26969-1.763-.26969-1.0577 0-2.0272.26969-2.9087.71914-.8815.49439-1.5427 1.16857-2.0275 2.06744-.4849.8989-.7053 1.8878-.7053 3.0563 0 1.1686.2645 2.1574.7494 3.0563.4846.8989 1.1899 1.5731 2.0273 2.0675.8376.4944 1.7629.7641 2.8209.7641.9695 0 1.851-.1798 2.6445-.6293.7933-.4045 1.4103-1.0337 1.8951-1.8877.4849-.8539.7053-1.8427.7053-3.0113v-.4944c0-.0628 0-.1353.0001-.213v-.0932c.0001-.1039-.0826-.1882-.1845-.1882h-4.5683c-.1019 0-.1846.0843-.1846.1882v1.6461c0 .104.0827.1883.1846.1883h2.0851c.0752 0 .1329.0682.1194.1436-.0437.2427-.1052.4631-.1846.6654-.1762.4944-.4848.809-.9256 1.0786-.3966.2248-.9254.3596-1.5865.3596-.529 0-1.058-.1798-1.4987-.4494-.4846-.3147-.8374-.7192-1.1019-1.2585-.2642-.5393-.3966-1.1686-.3966-1.8877 0-.7192.1324-1.3484.3966-1.8877.2645-.5394.6173-.9888 1.1019-1.2585.4849-.3146 1.0138-.44945 1.5867-.44945.529 0 1.0578.13485 1.4985.35955.3918.1998.7488.5415 1.0399.9622.0601.0869.1774.1119.2636.052l1.6397-1.1401c.08-.0557.1046-.16527.0519-.24816-.3013-.4735-.7044-.87318-1.1438-1.19902-.529-.35956-1.0137-.62925-1.6309-.80901Zm14.1168.36387 1.9668-.52826c.1171-.03144.2316.05859.2316.18202V18.9746c0 .1039-.0826.1882-.1846.1882h-1.9668c-.1019 0-.1845-.0843-.1845-.1882V8.4274c0-.08549.0565-.16025.1375-.18202Zm23.2017 4.66992c.309-.1797.617-.2696.97-.2696.396 0 .705.1348.969.2696.265.1349.485.4045.661.7641.177.3596.265.7641.265 1.2585 0 .4944-.088.8989-.265 1.2585-.132.3595-.352.6292-.661.809-.264.1798-.617.2696-.969.2696-.353 0-.706-.0898-.97-.2696-.264-.1798-.485-.4495-.661-.809-.176-.3596-.265-.7641-.265-1.2585 0-.4944.089-.8989.265-1.2585.132-.3146.353-.5843.661-.7641Zm3.173-1.8427c-.617-.3596-1.366-.5394-2.203-.5394-.794 0-1.543.1798-2.204.5394-.661.3595-1.146.8989-1.543 1.5731-.396.6742-.573 1.4382-.573 2.2922 0 .854.221 1.618.573 2.2922.353.6742.882 1.2135 1.543 1.5731.661.3596 1.41.5393 2.204.5393.793 0 1.542-.1797 2.203-.5393.662-.3596 1.146-.8989 1.543-1.5731.397-.6742.573-1.4382.573-2.2922 0-.854-.22-1.618-.573-2.2922-.353-.6742-.881-1.2136-1.543-1.5731Zm-16.682 7.2335c.018-.0286.068-.0155.068.0181v.6504c0 .104.083.1882.185.1882h1.966c.102 0 .185-.0842.185-.1882v-7.9834c0-.1039-.083-.1882-.185-.1882h-1.966c-.102 0-.185.0843-.185.1882v.7234c0 .0618-.08.0877-.117.0388-.124-.1641-.261-.3166-.412-.456-.485-.4944-1.146-.7191-1.939-.7191-.705 0-1.322.1798-1.895.5843-.529.3595-.97.8989-1.278 1.5731-.309.6742-.441 1.4382-.441 2.2473 0 .809.132 1.573.441 2.2472.308.6742.705 1.1686 1.278 1.5731.529.4045 1.19.5843 1.895.5843.837 0 1.454-.2697 1.983-.6292.202-.1373.341-.3285.417-.4523Zm-.813-1.3456c-.309.1798-.617.2697-.97.2697s-.661-.0899-.97-.2697c-.264-.1798-.484-.4494-.661-.809-.132-.3596-.22-.7641-.22-1.2135 0-.4495.044-.809.22-1.1686.177-.3146.397-.5843.661-.7641.309-.1798.617-.2696.97-.2696s.705.0898.97.2696c.264.1798.484.4045.661.7641.132.3146.22.7191.22 1.1686 0 .4494-.044.8539-.22 1.2135-.177.3596-.397.6292-.661.809Zm8.346-4.3148c-.034 0-.061.0281-.061.0628v3.2182c0 .7641.308 1.1686.925 1.1686h.697c.102 0 .185.0843.185.1882v1.6911c0 .1039-.083.1882-.185.1882h-1.005c-.926 0-1.675-.2697-2.16-.809-.529-.5394-.793-1.3034-.793-2.2922v-3.3531c0-.0347-.028-.0628-.062-.0628h-1.364c-.126 0-.215-.1268-.174-.2489l.489-1.4663c.026-.0763.096-.1276.175-.1276h.874c.034 0 .062-.0281.062-.0627V8.49016c0-.08549.056-.16024.137-.18201l2.044-.549c.078-.02096.155.03906.155.12135v2.8597c0 .0346.027.0627.061.0627h1.611c.126 0 .215.1268.175.2489l-.49 1.4664c-.025.0762-.096.1275-.175.1275h-1.121Zm-22.7224-2.1125c.7933 0 1.4544.1798 2.0274.5394.573.3595 1.0577.8989 1.3662 1.5731.3527.6742.4849 1.4382.4849 2.2922v.3961c0 .1039-.0826.1882-.1846.1882h-5.2307c-.0747 0-.1323.0673-.1195.1422.0385.225.0928.4226.1576.5769.1765.3596.3968.6293.6611.7641.2645.1348.6172.2696 1.058.2696.3966 0 .7932-.0898 1.0577-.2247.255-.1114.4798-.3149.6746-.5598.067-.0843.1885-.1016.2711-.0333l1.3404 1.1082c.0771.0637.0913.1785.0285.2569-.3758.4685-.8276.8254-1.3891 1.0708-.617.2697-1.2782.4045-1.9832.4045-.8376 0-1.5867-.1798-2.2479-.5394-.6611-.3595-1.146-.8989-1.4985-1.573-.3527-.6742-.529-1.4383-.529-2.2923 0-.8539.1763-1.618.529-2.2922.3525-.6741.8374-1.1686 1.4544-1.5731.617-.3146 1.2781-.4944 2.0716-.4944Zm-1.4849 3.4159c-.0776 0-.136-.0725-.1176-.1494.0773-.3233.1894-.5881.3242-.7945.2645-.4045.7052-.6292 1.2783-.6292.5288 0 .9695.2247 1.234.6292.1318.2016.2416.47.3187.7943.0183.077-.0401.1496-.1178.1496h-2.9198Z"
              clip-rule="evenodd"/>
        <path fill="#fff"
              d="M10.5269 17.1818V11h2.3916c.4598 0 .8515.0895 1.1751.2686.3237.1771.5703.4236.74.7396.1717.3139.2576.6761.2576 1.0866s-.0869.7727-.2605 1.0867c-.1737.3139-.4253.5584-.7548.7335-.3276.175-.7242.2626-1.1899.2626h-1.5244v-1.0475h1.3172c.2466 0 .4499-.0432.6097-.1297.1618-.0886.2822-.2103.3611-.3653.081-.1569.1214-.337.1214-.5403 0-.2052-.0404-.3843-.1214-.5373-.0789-.1549-.1993-.2747-.3611-.3592-.1618-.0865-.367-.1298-.6157-.1298h-.8643v5.1133h-1.2816Zm6.9693.0906c-.4598 0-.8574-.0996-1.1928-.2989-.3335-.2012-.5911-.4809-.7726-.8391-.1815-.3602-.2723-.7777-.2723-1.2527 0-.4789.0908-.8974.2723-1.2556.1815-.3602.4391-.6399.7726-.8392.3354-.2012.733-.3018 1.1928-.3018.4598 0 .8565.1006 1.1899.3018.3355.1993.594.479.7756.8392.1815.3582.2723.7767.2723 1.2556 0 .475-.0908.8925-.2723 1.2527-.1816.3582-.4401.6379-.7756.8391-.3334.1993-.7301.2989-1.1899.2989Zm.006-.9961c.2091 0 .3838-.0604.5239-.1811.1401-.1228.2456-.2898.3167-.5011.073-.2113.1095-.4518.1095-.7214 0-.2697-.0365-.5101-.1095-.7214-.0711-.2113-.1766-.3783-.3167-.5011-.1401-.1227-.3148-.1841-.5239-.1841-.2112 0-.3888.0614-.5328.1841-.1421.1228-.2497.2898-.3227.5011-.071.2113-.1065.4517-.1065.7214 0 .2696.0355.5101.1065.7214.073.2113.1806.3783.3227.5011.144.1207.3216.1811.5328.1811Zm3.4499.9055-1.2373-4.6363h1.2758l.7045 3.115h.0414l.7341-3.115h1.2521l.7459 3.0969h.0384l.6927-3.0969h1.2728l-1.2343 4.6363h-1.335l-.7814-2.9158h-.0563l-.7814 2.9158h-1.332Zm7.7664.0906c-.4677 0-.8703-.0966-1.2077-.2898-.3355-.1952-.594-.4709-.7755-.8271-.1816-.3582-.2724-.7817-.2724-1.2707 0-.477.0908-.8955.2724-1.2557.1815-.3602.4371-.6409.7666-.8422.3315-.2012.7203-.3018 1.1662-.3018.3 0 .5792.0493.8377.1479.2605.0966.4874.2425.6808.4377.1954.1952.3473.4407.4559.7365.1085.2938.1628.6379.1628 1.0323v.3531h-3.8392v-.7968h2.6522c0-.1852-.0395-.3492-.1184-.492-.0789-.1429-.1885-.2546-.3286-.3351-.1381-.0825-.2989-.1237-.4824-.1237-.1915 0-.3612.0452-.5092.1358-.146.0885-.2604.2083-.3433.3592-.0829.1489-.1253.3149-.1273.498v.7577c0 .2294.0414.4276.1243.5946.0849.167.2043.2958.3582.3864.1539.0905.3364.1358.5476.1358.1401 0 .2683-.0201.3848-.0604.1164-.0402.2161-.1006.2989-.1811.0829-.0805.1461-.1791.1895-.2958l1.1662.0785c-.0592.2857-.1805.5353-.3641.7486-.1815.2113-.4163.3763-.7044.495-.2862.1167-.6167.1751-.9916.1751Zm2.5249-.0906v-4.6363h1.2225v.8089h.0473c.0829-.2878.222-.5051.4174-.652.1954-.1489.4203-.2234.6749-.2234.0631 0 .1312.0041.2042.0121.073.0081.1372.0191.1924.0332v1.141c-.0592-.0181-.1411-.0342-.2457-.0483-.1045-.0141-.2002-.0211-.2871-.0211-.1855 0-.3512.0412-.4973.1237-.144.0805-.2585.1932-.3433.3381-.0829.1449-.1243.3119-.1243.5011v2.623h-1.261Zm4.8863.0906c-.4677 0-.8702-.0966-1.2077-.2898-.3354-.1952-.594-.4709-.7755-.8271-.1815-.3582-.2723-.7817-.2723-1.2707 0-.477.0908-.8955.2723-1.2557.1815-.3602.4371-.6409.7666-.8422.3316-.2012.7203-.3018 1.1663-.3018.2999 0 .5791.0493.8377.1479.2604.0966.4874.2425.6807.4377.1954.1952.3474.4407.4559.7365.1085.2938.1628.6379.1628 1.0323v.3531h-3.8391v-.7968h2.6521c0-.1852-.0394-.3492-.1184-.492-.0789-.1429-.1884-.2546-.3285-.3351-.1382-.0825-.299-.1237-.4825-.1237-.1914 0-.3611.0452-.5091.1358-.146.0885-.2605.2083-.3434.3592-.0829.1489-.1253.3149-.1273.498v.7577c0 .2294.0415.4276.1244.5946.0848.167.2042.2958.3581.3864.1539.0905.3365.1358.5476.1358.1401 0 .2684-.0201.3848-.0604.1164-.0402.2161-.1006.299-.1811.0829-.0805.146-.1791.1894-.2958l1.1662.0785c-.0592.2857-.1805.5353-.364.7486-.1816.2113-.4164.3763-.7045.495-.2861.1167-.6167.1751-.9916.1751Zm4.2003-.0151c-.3453 0-.6581-.0906-.9383-.2717-.2783-.1831-.4993-.4517-.663-.8059-.1619-.3562-.2428-.7929-.2428-1.31 0-.5313.0839-.973.2516-1.3251.1678-.3542.3908-.6188.669-.7939.2802-.1771.5871-.2656.9205-.2656.2546 0 .4667.0443.6364.1328.1717.0865.3099.1952.4144.326.1066.1288.1875.2556.2428.3803h.0384V11h1.258v6.1818h-1.2432v-.7425h-.0532c-.0592.1288-.1431.2565-.2516.3833-.1066.1248-.2457.2284-.4174.3109-.1697.0825-.3769.1238-.6216.1238Zm.3996-1.0233c.2033 0 .3749-.0563.515-.169.1421-.1147.2507-.2747.3256-.48.077-.2052.1155-.4457.1155-.7214 0-.2757-.0375-.5151-.1125-.7184-.075-.2032-.1835-.3602-.3256-.4708-.1421-.1107-.3147-.1661-.518-.1661-.2072 0-.3818.0574-.5239.1721-.1421.1147-.2496.2737-.3227.4769-.073.2033-.1095.4387-.1095.7063 0 .2697.0365.5081.1095.7154.075.2053.1826.3663.3227.483.1421.1147.3167.172.5239.172Zm4.4076.9478V11h1.2609v2.3242h.0385c.0553-.1247.1352-.2515.2398-.3803.1065-.1308.2447-.2395.4144-.326.1717-.0885.3848-.1328.6393-.1328.3316 0 .6374.0885.9176.2656.2803.1751.5042.4397.672.7939.1677.3521.2516.7938.2516 1.3251 0 .5171-.0819.9538-.2457 1.31-.1618.3542-.3828.6228-.6631.8059-.2782.1811-.59.2717-.9353.2717-.2447 0-.4529-.0413-.6246-.1238-.1697-.0825-.3088-.1861-.4173-.3109-.1086-.1268-.1914-.2545-.2487-.3833h-.0562v.7425h-1.2432Zm1.2343-2.3182c0 .2757.0375.5162.1125.7214.075.2053.1835.3653.3256.48.1421.1127.3147.169.518.169.2052 0 .3789-.0573.5209-.172.1421-.1167.2497-.2777.3227-.483.075-.2073.1125-.4457.1125-.7154 0-.2676-.0365-.503-.1096-.7063-.073-.2032-.1805-.3622-.3226-.4769-.1421-.1147-.3167-.1721-.5239-.1721-.2052 0-.3789.0554-.521.1661-.1401.1106-.2476.2676-.3226.4708-.075.2033-.1125.4427-.1125.7184Zm4.2884 4.0569c-.1599 0-.3098-.0131-.4499-.0393-.1382-.0241-.2526-.0553-.3434-.0936l.2842-.9598c.148.0463.2812.0714.3996.0754.1203.0041.2239-.0241.3108-.0845.0888-.0604.1608-.163.216-.3079l.074-.1962-1.6309-4.7691h1.3261l.9412 3.4048h.0474l.9501-3.4048h1.335l-1.7671 5.1374c-.0849.2495-.2003.4668-.3463.652-.1441.1871-.3266.331-.5476.4316-.221.1026-.4874.154-.7992.154Z"/>
    </g>
    <defs>
        <linearGradient id="c" x1="66.6106" x2="66.6106" y1="11.3645" y2="21.9999" gradientUnits="userSpaceOnUse">
            <stop stop-color="#B3B3B3"/>
            <stop offset="1" stop-color="#969696"/>
        </linearGradient>
        <linearGradient id="d" x1="69.0858" x2="69.0858" y1="11.105" y2="22.7082" gradientUnits="userSpaceOnUse">
            <stop stop-color="#fff"/>
            <stop offset=".197917" stop-color="#EDEDED"/>
            <stop offset="1" stop-color="#ABABAB"/>
        </linearGradient>
        <radialGradient id="b" cx="0" cy="0" r="1"
                        gradientTransform="matrix(-7.24578 4.30223 -5.20953 -8.77385 69.2707 6.43525)"
                        gradientUnits="userSpaceOnUse">
            <stop offset=".116813" stop-color="#fff"/>
            <stop offset=".864358" stop-color="#A9A9A9"/>
        </radialGradient>
        <clipPath id="a">
            <path fill="#fff" d="M0 0h136v28H0z"/>
        </clipPath>
    </defs>
</svg>
