<svg xmlns="http://www.w3.org/2000/svg" fill="none" viewBox="0 0 150 30">
    <path fill="#55399E" d="M53.968 24.048c-.288 0-.528-.12-.72-.36l-6.384-8.136 1.464-1.488 6.504 8.328c.144.208.216.424.216.648 0 .32-.12.568-.36.744-.224.176-.464.264-.72.264Zm-.072-16.872c.256 0 .464.104.624.312.176.208.264.424.264.648 0 .224-.096.432-.288.624L43.888 18.792l-.168-2.232 9.408-9.024c.24-.24.496-.36.768-.36ZM43.096 24c-.304 0-.544-.096-.72-.288-.176-.192-.264-.424-.264-.696V8.184c0-.288.096-.52.288-.696.192-.192.432-.288.72-.288.304 0 .544.096.72.288.176.176.264.408.264.696v14.832c0 .272-.096.504-.288.696-.176.192-.416.288-.72.288Zm26.0031-6.24c0 1.248-.28 2.36-.84 3.336-.544.976-1.288 1.744-2.232 2.304-.928.56-1.976.84-3.144.84-1.168 0-2.224-.28-3.168-.84-.944-.56-1.696-1.328-2.256-2.304-.544-.976-.816-2.088-.816-3.336 0-1.248.272-2.36.816-3.336.56-.976 1.312-1.744 2.256-2.304.944-.56 2-.84 3.168-.84 1.168 0 2.216.28 3.144.84.944.56 1.688 1.328 2.232 2.304.56.976.84 2.088.84 3.336Zm-1.92 0c0-.928-.192-1.744-.576-2.448-.368-.704-.88-1.256-1.536-1.656-.64-.4-1.368-.6-2.184-.6-.816 0-1.552.2-2.208.6-.64.4-1.152.952-1.536 1.656-.384.704-.576 1.52-.576 2.448 0 .912.192 1.72.576 2.424.384.704.896 1.264 1.536 1.68.656.4 1.392.6 2.208.6.816 0 1.544-.2 2.184-.6.656-.416 1.168-.976 1.536-1.68.384-.704.576-1.512.576-2.424ZM72.9469 24c-.272 0-.504-.096-.696-.288-.176-.192-.264-.424-.264-.696V12.552c0-.272.088-.496.264-.672.192-.192.424-.288.696-.288.288 0 .52.096.696.288.176.176.264.4.264.672v3.168l-.288-.504c.096-.496.264-.976.504-1.44.256-.48.576-.904.96-1.272.384-.384.824-.68 1.32-.888.496-.224 1.04-.336 1.632-.336.352 0 .672.088.96.264.304.16.456.392.456.696 0 .336-.088.584-.264.744-.176.16-.376.24-.6.24-.208 0-.408-.04-.6-.12-.192-.096-.432-.144-.72-.144-.4 0-.8.112-1.2.336-.384.208-.744.512-1.08.912-.32.4-.584.856-.792 1.368-.192.496-.288 1.032-.288 1.608v5.832c0 .272-.096.504-.288.696-.176.192-.4.288-.672.288Zm17.9609-12.408c.288 0 .52.096.696.288.176.176.264.4.264.672v6.552c0 1.616-.456 2.872-1.368 3.768-.896.88-2.152 1.32-3.768 1.32-1.6 0-2.856-.44-3.768-1.32-.896-.896-1.344-2.152-1.344-3.768v-6.552c0-.272.088-.496.264-.672.192-.192.424-.288.696-.288.288 0 .52.096.696.288.176.176.264.4.264.672v6.552c0 1.088.28 1.912.84 2.472.56.56 1.344.84 2.352.84 1.04 0 1.832-.28 2.376-.84.56-.56.84-1.384.84-2.472v-6.552c0-.272.088-.496.264-.672.192-.192.424-.288.696-.288ZM109.33 7.2c1.168 0 2.192.224 3.072.672.896.432 1.64 1.04 2.232 1.824.592.784 1.032 1.688 1.32 2.712.304 1.008.456 2.072.456 3.192 0 1.536-.264 2.944-.792 4.224-.528 1.264-1.312 2.28-2.352 3.048-1.04.752-2.352 1.128-3.936 1.128h-6c-.272 0-.504-.096-.696-.288-.176-.192-.264-.424-.264-.696V8.16c0-.272.088-.496.264-.672.192-.192.424-.288.696-.288h6Zm-.24 14.928c1.232 0 2.232-.296 3-.888.784-.592 1.352-1.384 1.704-2.376.368-.992.552-2.08.552-3.264 0-.864-.104-1.688-.312-2.472-.192-.8-.504-1.504-.936-2.112-.416-.608-.96-1.088-1.632-1.44-.656-.352-1.448-.528-2.376-.528h-4.92l.192-.192v13.512l-.144-.24h4.872Zm16.197-12.432-5.64 13.728c-.064.192-.176.344-.336.456-.16.112-.328.168-.504.168-.304 0-.528-.08-.672-.24-.144-.16-.216-.352-.216-.576-.016-.112 0-.232.048-.36l6.216-15.12c.08-.224.2-.384.36-.48.176-.112.368-.16.576-.144.208 0 .392.056.552.168.176.112.296.264.36.456l6.192 14.976c.048.128.072.256.072.384 0 .288-.096.52-.288.696-.192.16-.408.24-.648.24-.192 0-.368-.056-.528-.168-.16-.112-.28-.272-.36-.48l-5.712-13.728.528.024Zm-4.44 9.816.816-1.872h7.128l.36 1.872h-8.304Zm29.104-3.912c0 1.232-.2 2.376-.6 3.432-.4 1.04-.96 1.952-1.68 2.736-.72.784-1.576 1.392-2.568 1.824-.992.432-2.072.648-3.24.648-1.184 0-2.272-.216-3.264-.648-.976-.432-1.824-1.04-2.544-1.824s-1.28-1.696-1.68-2.736c-.4-1.056-.6-2.2-.6-3.432 0-1.248.2-2.392.6-3.432.4-1.056.96-1.968 1.68-2.736.72-.784 1.568-1.392 2.544-1.824.992-.432 2.08-.648 3.264-.648 1.168 0 2.248.216 3.24.648.992.432 1.848 1.04 2.568 1.824.72.768 1.28 1.68 1.68 2.736.4 1.04.6 2.184.6 3.432Zm-2.064 0c0-1.312-.264-2.472-.792-3.48-.512-1.008-1.216-1.8-2.112-2.376-.896-.576-1.936-.864-3.12-.864-1.184 0-2.232.288-3.144.864-.896.576-1.6 1.368-2.112 2.376-.512 1.008-.768 2.168-.768 3.48 0 1.296.256 2.456.768 3.48.512 1.008 1.216 1.8 2.112 2.376.912.576 1.96.864 3.144.864 1.184 0 2.224-.288 3.12-.864.896-.576 1.6-1.368 2.112-2.376.528-1.024.792-2.184.792-3.48Z"/>
    <path fill="url(#a)" d="M15 0c8.2846 0 15 6.71543 15 15 0 6.021-3.5501 11.2124-8.6693 13.5992.8296-.7816 1.5751-1.6443 2.2034-2.5762.6883-1.019 1.2445-2.1102 1.6533-3.2464.3998-1.1093.6613-2.2606.7785-3.4179.1113-1.1302.0842-2.2665-.0781-3.3757-.1623-1.0822-.4539-2.1343-.8688-3.1293-.4058-.9739-.9288-1.8878-1.5511-2.7174-.6072-.81165-1.3106-1.54211-2.0861-2.17037-.7606-.61623-1.5872-1.13026-2.462-1.53607-.8537-.39379-1.7495-.68237-2.6603-.85371-.8898-.16834-1.7946-.22545-2.6874-.16833-.8717.0541-1.7284.21342-2.5521.47495-.8026.25551-1.56609.61022-2.27251 1.04609-.69138.42986-1.32264.93787-1.87875 1.51503-.54409.56513-1.01603 1.19038-1.3978 1.86071-.37575.6553-.66733 1.3527-.86874 2.0712-.19539.7004-.3036 1.4218-.32164 2.1432-.01804.7034.0511 1.4038.20441 2.0832.1503.6613.37876 1.3016.68236 1.8998.2976.5862.66433 1.1303 1.09119 1.6172.41483.475.88677.8988 1.4008 1.2565.502.3487 1.04609.6343 1.61122.8477.55311.2075 1.13026.3457 1.71046.4119.5741.0631 1.1453.0571 1.7044-.0181.5471-.0751 1.0821-.2164 1.5902-.4208.4989-.2014.9679-.4599 1.3947-.7726.4179-.3066.7966-.6613 1.1243-1.0551.3186-.3847.5922-.8086.8056-1.2565.2104-.4389.3637-.9018.4599-1.3737.0932-.463.1293-.9349.1052-1.4008-.021-.4569-.1022-.9078-.2344-1.3377-.1293-.4238-.3097-.8297-.5381-1.2024-.2225-.3667-.487-.7064-.7906-1.004-.2976-.2946-.6283-.5471-.983-.7575-.3487-.2044-.7214-.3668-1.1062-.481-.3817-.1112-.7695-.1743-1.1573-.1894-.3787-.015-.7605.0181-1.1303.0962-.3667.0782-.7184.2014-1.046.3607-.3247.1594-.6253.3578-.8988.5892-.2676.2255-.50505.484-.70645.7696-.2014.2825-.36373.5831-.48698.8988-.12024.3126-.20441.6342-.24348.9619-.03908.3246-.03908.6493 0 .9679.03907.3156.11723.6223.23146.9138.11122.2886.25852.5592.43587.8087.17435.2465.37876.4689.60418.6613.2225.1894.469.3517.7305.4809.2525.1263.526.2195.8056.2796.2766.0601.5561.0842.8327.0722.2735-.0091.5471-.0542.8056-.1323.1773-.0511.3517-.1203.517-.2014-.2164.1563-.4539.2856-.7034.3878-.2675.1082-.5531.1833-.8447.2224-.3006.0421-.6162.0451-.9288.009-.3217-.036-.6463-.1142-.959-.2314-.3246-.1203-.63423-.2856-.92581-.487-.3006-.2104-.58016-.4599-.82365-.7395-.25551-.2946-.47795-.6222-.65831-.9769-.18638-.3668-.32766-.7606-.42085-1.1724-.09619-.4268-.13827-.8657-.12925-1.3106.01202-.4599.08116-.9229.20741-1.3768.13226-.4689.32164-.9258.56814-1.3557.25551-.4449.56813-.8627.93186-1.2415.37575-.3877.80261-.73343 1.27456-1.02802.487-.3036 1.013-.54408 1.5691-.72144.5772-.18337 1.1784-.29459 1.7916-.33367.6343-.03907 1.2776 0 1.9148.12024.6584.12325 1.3046.33067 1.9239.61624.6373.29459 1.2445.67334 1.8036 1.12425.5741.4659 1.0972 1.01 1.5481 1.6142.4659.6223.8597 1.3106 1.1663 2.0441.3157.7545.5381 1.5571.6613 2.3838.1263.8507.1473 1.7254.0602 2.6002-.0902.9018-.2946 1.7976-.6072 2.6633-.3217.8928-.7606 1.7525-1.3017 2.5551-.5591.8267-1.2264 1.5902-1.9839 2.2696-.7816.6973-1.6563 1.3046-2.6002 1.7976-.974.511-2.0201.9018-3.1112 1.1603-.3818.0901-.7696.1593-1.1604.2194C5.19138 28.3497 0 22.2806 0 15 0 6.71543 6.71543 0 15 0Z"/>
    <defs>
        <linearGradient id="a" x1="15" x2="15" y1="0" y2="29.7114" gradientUnits="userSpaceOnUse">
            <stop stop-color="#E56EB3"/>
            <stop offset="1" stop-color="#55399E"/>
        </linearGradient>
    </defs>
</svg>
