<svg width="123" height="113" viewBox="0 0 123 113" fill="none" xmlns="http://www.w3.org/2000/svg">
    <path d="M64.5 16C91.2868 16 113 37.7132 113 64.5C113 83.968 101.521 100.754 84.9691 108.471C87.6517 105.944 90.0621 103.154 92.0935 100.141C94.3192 96.8463 96.1173 93.3181 97.4392 89.6442C98.7319 86.0577 99.5774 82.3352 99.9565 78.5932C100.316 74.9387 100.229 71.2647 99.7038 67.6783C99.179 64.1793 98.2362 60.7775 96.8949 57.5603C95.5828 54.4112 93.8916 51.4565 91.8797 48.7739C89.9163 46.1497 87.642 43.7879 85.1344 41.7565C82.6753 39.764 80.0025 38.102 77.1741 36.7899C74.4138 35.5166 71.5174 34.5836 68.5724 34.0296C65.6955 33.4853 62.7699 33.3006 59.8833 33.4853C57.0646 33.6602 54.2946 34.1754 51.6315 35.0209C49.0364 35.8471 46.5676 36.994 44.2836 38.4033C42.0481 39.7932 40.007 41.4358 38.2089 43.3019C36.4497 45.1292 34.9237 47.1508 33.6894 49.3182C32.4744 51.4371 31.5317 53.692 30.8805 56.0149C30.2487 58.2796 29.8988 60.6122 29.8405 62.9449C29.7822 65.2192 30.0057 67.4839 30.5014 69.6805C30.9874 71.8187 31.7261 73.889 32.7077 75.8231C33.6699 77.7184 34.8557 79.4777 36.2359 81.0522C37.5772 82.5879 39.1031 83.9583 40.7651 85.1149C42.3883 86.2424 44.1475 87.1657 45.9747 87.8558C47.7631 88.5265 49.6293 88.9735 51.5051 89.1874C53.3615 89.3915 55.2082 89.372 57.016 89.1291C58.785 88.8861 60.515 88.4293 62.1576 87.7683C63.771 87.1171 65.2873 86.2813 66.6674 85.2704C68.0184 84.2791 69.2431 83.1322 70.3025 81.8589C71.3328 80.6148 72.2172 79.2444 72.9073 77.7962C73.5877 76.3772 74.0834 74.8804 74.3944 73.3544C74.6957 71.8576 74.8123 70.3317 74.7346 68.8251C74.6665 67.3478 74.4041 65.8899 73.9765 64.5C73.5585 63.1296 72.9753 61.8174 72.2367 60.6122C71.5174 59.4265 70.6621 58.3282 69.6805 57.3659C68.7182 56.4134 67.6491 55.597 66.5022 54.9166C65.3747 54.2557 64.1695 53.7309 62.9254 53.3615C61.6911 53.0019 60.4373 52.7978 59.1835 52.7492C57.9588 52.7006 56.7244 52.8075 55.529 53.0602C54.3432 53.3129 53.206 53.7114 52.1466 54.2266C51.0969 54.7417 50.125 55.3832 49.2405 56.1316C48.3755 56.8605 47.6076 57.6964 46.9564 58.6197C46.3052 59.5334 45.7804 60.5053 45.3819 61.5259C44.9931 62.5367 44.7209 63.5767 44.5946 64.6361C44.4682 65.6858 44.4682 66.7355 44.5946 67.7657C44.7209 68.7863 44.9736 69.7777 45.343 70.7204C45.7026 71.6535 46.1789 72.5283 46.7523 73.335C47.316 74.132 47.977 74.8512 48.7059 75.4732C49.4252 76.0856 50.2221 76.6104 51.0677 77.0284C51.8842 77.4366 52.7686 77.7379 53.6725 77.9323C54.5667 78.1267 55.4706 78.2044 56.3648 78.1655C57.2493 78.1364 58.1338 77.9906 58.9696 77.7379C59.5431 77.5726 60.1068 77.3491 60.6414 77.0867C59.9416 77.5921 59.1737 78.01 58.367 78.3405C57.502 78.6904 56.5787 78.9334 55.6359 79.0597C54.6639 79.1958 53.6434 79.2055 52.6326 79.0889C51.5926 78.9722 50.5429 78.7195 49.5321 78.3405C48.4824 77.9517 47.4813 77.4171 46.5385 76.7659C45.5665 76.0856 44.6626 75.2789 43.8754 74.375C43.0492 73.4224 42.33 72.363 41.7468 71.2161C41.1442 70.0304 40.6874 68.7571 40.3861 67.4255C40.0751 66.0454 39.939 64.6264 39.9681 63.1879C40.007 61.7008 40.2306 60.204 40.6388 58.7364C41.0664 57.2201 41.6788 55.7428 42.4757 54.3529C43.3019 52.9144 44.3127 51.5634 45.4888 50.3388C46.7037 49.085 48.0839 47.9672 49.6098 47.0147C51.1844 46.0331 52.8853 45.2555 54.6834 44.6821C56.5495 44.0892 58.4934 43.7296 60.4762 43.6032C62.527 43.4769 64.6069 43.6032 66.6674 43.992C68.796 44.3905 70.8857 45.0611 72.8879 45.9845C74.9484 46.937 76.9117 48.1616 78.7195 49.6195C80.576 51.1261 82.2671 52.8853 83.7251 54.8389C85.2316 56.8508 86.5048 59.0765 87.4962 61.4481C88.5167 63.8877 89.236 66.4828 89.6345 69.1556C90.0427 71.9062 90.1107 74.7346 89.8289 77.5629C89.5373 80.4788 88.8764 83.3751 87.8655 86.1743C86.8256 89.061 85.4065 91.8408 83.657 94.4359C81.8492 97.1087 79.6915 99.5775 77.2422 101.774C74.7151 104.029 71.8868 105.992 68.8349 107.586C65.6858 109.239 62.3034 110.502 58.7752 111.338C57.5409 111.63 56.2871 111.853 55.0235 112.047C32.7855 107.664 16 88.0405 16 64.5C16 37.7132 37.7132 16 64.5 16Z" fill="url(#paint0_linear_0_1)"/>
    <path d="M121.186 36.5022C116.707 27.6705 110.208 20.0191 102.218 14.1689C94.2283 8.31869 84.9717 4.43438 75.1996 2.83114C65.4275 1.2279 55.415 1.95087 45.9746 4.94141C36.5342 7.93196 27.9317 13.1058 20.8651 20.0433C13.7985 26.9807 8.4668 35.4863 5.30261 44.8699C2.13842 54.2536 1.23086 64.251 2.65356 74.051C4.07626 83.8511 7.78914 93.1777 13.491 101.274" stroke="url(#paint1_linear_0_1)" stroke-width="3" stroke-linecap="round"/>
    <defs>
        <linearGradient id="paint0_linear_0_1" x1="64.5" y1="16" x2="64.5" y2="112.067" gradientUnits="userSpaceOnUse">
            <stop stop-color="#E56EB3"/>
            <stop offset="1" stop-color="#55399E"/>
        </linearGradient>
        <linearGradient id="paint1_linear_0_1" x1="61.593" y1="2" x2="61.593" y2="101.274" gradientUnits="userSpaceOnUse">
            <stop stop-color="#E56EB4"/>
            <stop offset="1" stop-color="#583A9F"/>
        </linearGradient>
    </defs>
</svg>
