<svg width="97" height="97" viewBox="0 0 97 97" fill="none" xmlns="http://www.w3.org/2000/svg">
    <path d="M48.5 0C75.2868 0 97 21.7132 97 48.5C97 67.968 85.5213 84.7535 68.9691 92.4707C71.6517 89.9437 74.0621 87.1542 76.0935 84.1412C78.3192 80.8463 80.1173 77.3181 81.4392 73.6442C82.7319 70.0577 83.5774 66.3352 83.9565 62.5932C84.3161 58.9387 84.2287 55.2647 83.7038 51.6783C83.179 48.1793 82.2362 44.7775 80.8949 41.5603C79.5828 38.4112 77.8916 35.4565 75.8797 32.7739C73.9163 30.1497 71.642 27.7879 69.1344 25.7565C66.6753 23.764 64.0025 22.102 61.1741 20.7899C58.4138 19.5166 55.5174 18.5836 52.5724 18.0296C49.6955 17.4853 46.7699 17.3006 43.8833 17.4853C41.0646 17.6602 38.2946 18.1754 35.6315 19.0209C33.0364 19.8471 30.5676 20.994 28.2836 22.4033C26.0481 23.7932 24.007 25.4358 22.2089 27.3019C20.4497 29.1292 18.9237 31.1508 17.6894 33.3182C16.4744 35.4371 15.5317 37.692 14.8805 40.0149C14.2487 42.2796 13.8988 44.6122 13.8405 46.9449C13.7822 49.2192 14.0057 51.4839 14.5014 53.6805C14.9874 55.8187 15.7261 57.889 16.7077 59.8231C17.6699 61.7184 18.8557 63.4777 20.2359 65.0522C21.5772 66.5879 23.1031 67.9583 24.7651 69.1149C26.3883 70.2424 28.1475 71.1657 29.9747 71.8558C31.7631 72.5265 33.6293 72.9735 35.5051 73.1874C37.3615 73.3915 39.2082 73.372 41.016 73.1291C42.785 72.8861 44.515 72.4293 46.1576 71.7683C47.771 71.1171 49.2873 70.2813 50.6674 69.2704C52.0184 68.2791 53.2431 67.1322 54.3025 65.8589C55.3328 64.6148 56.2172 63.2444 56.9073 61.7962C57.5877 60.3772 58.0834 58.8804 58.3944 57.3544C58.6957 55.8576 58.8123 54.3317 58.7346 52.8251C58.6665 51.3478 58.4041 49.8899 57.9765 48.5C57.5585 47.1296 56.9753 45.8174 56.2367 44.6122C55.5174 43.4265 54.6621 42.3282 53.6805 41.3659C52.7182 40.4134 51.6491 39.597 50.5022 38.9166C49.3747 38.2557 48.1695 37.7309 46.9254 37.3615C45.6911 37.0019 44.4373 36.7978 43.1835 36.7492C41.9588 36.7006 40.7244 36.8075 39.529 37.0602C38.3432 37.3129 37.206 37.7114 36.1466 38.2266C35.0969 38.7417 34.125 39.3832 33.2405 40.1316C32.3755 40.8605 31.6076 41.6964 30.9564 42.6197C30.3052 43.5334 29.7804 44.5053 29.3819 45.5259C28.9931 46.5367 28.7209 47.5767 28.5946 48.6361C28.4682 49.6858 28.4682 50.7355 28.5946 51.7657C28.7209 52.7863 28.9736 53.7777 29.343 54.7204C29.7026 55.6535 30.1789 56.5283 30.7523 57.335C31.316 58.132 31.977 58.8512 32.7059 59.4732C33.4252 60.0856 34.2221 60.6104 35.0677 61.0284C35.8842 61.4366 36.7686 61.7379 37.6725 61.9323C38.5667 62.1267 39.4706 62.2044 40.3648 62.1655C41.2493 62.1364 42.1338 61.9906 42.9696 61.7379C43.5431 61.5726 44.1068 61.3491 44.6414 61.0867C43.9416 61.5921 43.1737 62.01 42.367 62.3405C41.502 62.6904 40.5787 62.9334 39.6359 63.0597C38.6639 63.1958 37.6434 63.2055 36.6326 63.0889C35.5926 62.9722 34.5429 62.7195 33.5321 62.3405C32.4824 61.9517 31.4813 61.4171 30.5385 60.7659C29.5665 60.0856 28.6626 59.2789 27.8754 58.375C27.0492 57.4224 26.33 56.363 25.7468 55.2161C25.1442 54.0304 24.6874 52.7571 24.3861 51.4255C24.0751 50.0454 23.939 48.6264 23.9681 47.1879C24.007 45.7008 24.2306 44.204 24.6388 42.7364C25.0664 41.2201 25.6788 39.7428 26.4757 38.3529C27.3019 36.9144 28.3127 35.5634 29.4888 34.3388C30.7037 33.085 32.0839 31.9672 33.6098 31.0147C35.1844 30.0331 36.8853 29.2555 38.6834 28.6821C40.5495 28.0892 42.4934 27.7296 44.4762 27.6032C46.527 27.4769 48.6069 27.6032 50.6674 27.992C52.796 28.3905 54.8857 29.0611 56.8879 29.9845C58.9484 30.937 60.9117 32.1616 62.7195 33.6195C64.576 35.1261 66.2671 36.8853 67.7251 38.8389C69.2316 40.8508 70.5048 43.0765 71.4962 45.4481C72.5167 47.8877 73.236 50.4828 73.6345 53.1556C74.0427 55.9062 74.1107 58.7346 73.8289 61.5629C73.5373 64.4788 72.8764 67.3751 71.8655 70.1743C70.8256 73.061 69.4065 75.8408 67.657 78.4359C65.8492 81.1087 63.6915 83.5775 61.2422 85.774C58.7151 88.029 55.8868 89.9923 52.8349 91.5863C49.6858 93.2386 46.3034 94.5021 42.7752 95.338C41.5409 95.6296 40.2871 95.8531 39.0235 96.0475C16.7855 91.664 0 72.0405 0 48.5C0 21.7132 21.7132 0 48.5 0Z" fill="url(#paint0_linear_74_1170)"/>
    <defs>
        <linearGradient id="paint0_linear_74_1170" x1="48.5" y1="0" x2="48.5" y2="96.0669" gradientUnits="userSpaceOnUse">
            <stop stop-color="#E56EB3"/>
            <stop offset="1" stop-color="#55399E"/>
        </linearGradient>
    </defs>
</svg>
