<svg xmlns="http://www.w3.org/2000/svg" fill="none" viewBox="0 0 120 73">
    <path fill="#3B99FC" d="M24.582 14.2558c19.5666-19.01814 51.3003-19.01814 70.8669 0l2.353 2.2735c.9907.9525.9907 2.4887 0 3.4411l-8.0496 7.8346c-.4953.4609-1.2693.4609-1.7647 0l-3.2508-3.1646c-13.6532-13.2727-35.7894-13.2727-49.4427 0l-3.4675 3.3797c-.4953.4608-1.2693.4608-1.7647 0l-8.0805-7.8039c-.9907-.9524-.9907-2.4886 0-3.4411l2.6006-2.5193Zm87.523 16.1915 7.183 6.9743c.991.9524.991 2.4886 0 3.4411L86.935 72.2932c-.9907.9525-2.5697.9525-3.5294 0L60.4644 49.9877c-.2477-.2458-.6502-.2458-.8978 0L36.6254 72.2932c-.9907.9525-2.5697.9525-3.5294 0L.743034 40.8627c-.990712-.9525-.990712-2.4887 0-3.4411L7.9257 30.4473c.99071-.9525 2.5697-.9525 3.5294 0l22.9412 22.3055c.2477.2458.6501.2458.8978 0l22.9412-22.3055c.9907-.9525 2.5697-.9525 3.5294 0l22.9412 22.3055c.2477.2458.6501.2458.8978 0l22.9413-22.3055c.991-.9525 2.57-.9525 3.56 0Z"/>
</svg>
